<svg width="809" height="68" viewBox="0 0 809 68" fill="none" xmlns="http://www.w3.org/2000/svg">
<path fill-rule="evenodd" clip-rule="evenodd" d="M17.39 1.743C16.488 3.174 16.019 3.26 14.772 2.226C12.688 0.497 9.70901 1.778 10.326 4.138C10.63 5.302 10.286 6 9.40601 6C8.52301 6 8.00001 7.073 8.00001 8.886C8.00001 10.473 7.32801 13.06 6.50601 14.636C5.68501 16.211 5.01001 19.132 5.00601 21.128C5.00301 23.123 4.40301 25.25 3.67401 25.856C2.82301 26.562 2.37501 29.114 2.42401 32.978C2.46601 36.291 2.22701 39.113 1.89401 39.25C1.03601 39.603 0.101008 49 0.923008 49C1.29501 49 2.15901 48.441 2.84201 47.758C3.83001 46.77 4.27201 46.82 5.01101 48.008C5.77501 49.237 6.29501 49.28 7.95601 48.25C10.724 46.535 11 46.643 11 49.441C11 52.867 12.361 53.384 20.916 53.209C26.371 53.098 29.116 53.501 30.91 54.676C34.172 56.814 39.842 58.065 40.613 56.817C41.3 55.705 48.671 56.504 57 58.593C60.655 59.51 64.177 59.717 67.5 59.212C72.345 58.474 86.197 59.823 87.507 61.16C87.862 61.522 89.434 61.084 91 60.185C93.621 58.681 93.992 58.68 95.673 60.166C97.043 61.376 101.202 62.037 112.297 62.806C120.435 63.371 127.706 64.341 128.453 64.961C129.314 65.675 134.715 66.089 143.157 66.088C150.496 66.087 157.391 66.087 158.481 66.088C159.57 66.089 161.06 65.282 161.793 64.295C163.071 62.571 163.177 62.572 164.483 64.334C165.34 65.489 166.888 66.083 168.671 65.94C170.227 65.815 172.266 66.042 173.202 66.445C174.138 66.848 175.488 66.808 176.202 66.356C177.259 65.688 189.226 65.056 201.837 65.002C203.122 64.996 205.135 64.319 206.309 63.496C207.601 62.591 210.706 62 214.163 62C217.309 62 220.16 61.55 220.5 61C221.51 59.365 224.288 59.808 223.638 61.5C222.988 63.194 224.057 63.328 236 63.048C246.934 62.792 247.352 62.794 273 63.232C285.925 63.453 297.815 63.275 299.422 62.837C301.244 62.341 302.844 62.456 303.672 63.143C304.647 63.952 305.396 63.916 306.487 63.011C307.431 62.227 308.983 62.05 310.737 62.524C313.408 63.246 324.269 63.937 332.5 63.907C334.7 63.899 338.487 63.448 340.915 62.905C343.792 62.262 345.542 62.258 345.936 62.896C346.732 64.185 361.855 63.366 363.571 61.941C364.555 61.124 366.032 61.52 369.429 63.511C371.927 64.975 374.99 66.292 376.235 66.437C377.481 66.582 379.981 67.032 381.791 67.439C383.829 67.896 385.597 67.749 386.436 67.053C387.18 66.435 388.174 66.018 388.645 66.126C389.115 66.235 390.841 65.772 392.479 65.099C394.39 64.314 397.258 64.125 400.479 64.571C406.414 65.394 415.484 66.123 419 66.06C423.396 65.981 453.259 66.104 460.172 66.229C463.842 66.296 470.012 65.753 473.883 65.022C479.475 63.967 482.381 63.935 488.024 64.867C491.93 65.512 495.461 65.833 495.871 65.58C496.28 65.327 499.183 65.469 502.322 65.895C506.464 66.457 508.313 66.327 509.064 65.423C509.703 64.652 512.682 64.176 516.865 64.176C520.586 64.176 525.401 63.71 527.565 63.14C533.745 61.511 553.55 61.53 562 63.173C567.462 64.235 584.548 65.138 597 65.022C603.045 64.966 610.394 63.942 615.765 62.406C617.526 61.903 617.9 62.097 617.447 63.278C616.55 65.615 618.897 66.403 621.024 64.479C622.496 63.146 623.905 62.909 627.307 63.419C630.642 63.919 632 63.705 632.978 62.527C634.134 61.134 634.387 61.148 635.496 62.663C636.497 64.033 638.674 64.384 647.114 64.537C652.826 64.64 657.95 64.456 658.5 64.128C659.621 63.459 661.09 63.336 672.5 62.958C677.921 62.778 681.733 62.078 684.326 60.787C686.89 59.51 688.54 59.203 689.326 59.855C690.895 61.156 699.924 60.672 702.772 59.134C705.406 57.711 715.419 58.273 717.449 59.958C718.79 61.071 718.978 61.024 727.5 57.467C730.6 56.172 736.61 56.559 737.571 58.115C737.872 58.602 740.352 59 743.081 59C747.502 59 748.531 58.552 752.493 54.899C756.653 51.065 757.05 50.907 758.616 52.473C759.969 53.827 760.458 53.894 761.164 52.824C761.858 51.77 762.248 51.858 763.071 53.256C764.193 55.16 767.882 54.807 771.305 52.468C772.482 51.664 774.281 51.5 776.484 51.996C778.34 52.415 781.799 52.403 784.17 51.969C786.542 51.535 788.937 51.47 789.491 51.824C791.223 52.929 809.049 52.649 808.68 51.522C808.496 50.96 806.806 50.37 804.923 50.211C803.04 50.053 800.825 49.644 800 49.304C799.175 48.963 797.943 48.774 797.261 48.884C796.58 48.993 795.089 48.583 793.947 47.972C792.424 47.157 791.514 47.158 790.528 47.977C788.854 49.366 779.138 48.282 777 46.468C775.52 45.212 761.389 45.034 759.398 46.246C757.566 47.361 748.108 45.108 746.072 43.072C744.932 41.932 743.663 40.961 743.25 40.914C738.113 40.322 732.85 40.433 732.412 41.142C732.11 41.631 730.523 41.241 728.886 40.274C726.054 38.601 725.762 38.6 722.874 40.258C721.204 41.216 719.199 42 718.419 42C717.639 42 717 42.505 717 43.122C717 43.913 716.569 43.887 715.544 43.036C714.743 42.372 713.684 42.077 713.191 42.382C712.698 42.687 711.441 42.29 710.397 41.5C707.748 39.494 705.618 39.659 703.466 42.038C701.774 43.908 701.544 43.937 700.678 42.389C699.828 40.871 699.545 40.942 697.855 43.101C696.122 45.313 695.894 45.363 694.938 43.75C693.814 41.853 688.536 41.323 687.498 43.003C687.096 43.654 686.25 43.669 685.082 43.044C682.718 41.779 676 43.607 676 45.516C676 46.368 675.4 46.707 674.5 46.362C673.675 46.045 673 44.934 673 43.893C673 42.852 672.55 42 672 42C671.45 42 671 42.44 671 42.977C671 43.514 669.912 44.666 668.583 45.537C666.606 46.833 665.805 46.895 664.181 45.881C662.548 44.861 661.742 44.939 659.633 46.321C656.455 48.403 654 48.481 654 46.5C654 45.076 649.335 44.336 643.617 44.853C641.014 45.089 639 43.19 639 40.5C639 37.438 641.413 35.636 644.483 36.406C647.576 37.183 648.572 36.873 648.199 35.25C648.041 34.563 648.382 34 648.956 34C649.53 34 650 34.675 650 35.5C650 37.747 652.371 37.309 654.7 34.63C656.595 32.45 657.187 32.328 662.105 33.106C668.295 34.084 670.165 33.095 668.168 29.897C666.745 27.618 668.057 25 670.622 25C671.38 25 672 24.325 672 23.5C672 22.675 672.675 22 673.5 22C674.325 22 675 21.55 675 21C675 20.45 675.97 20 677.155 20C679.126 20 679.179 20.15 677.774 21.75C676.78 22.883 676.397 24.733 676.688 27C676.935 28.925 677.171 31.737 677.212 33.25C677.299 36.426 677.568 36.496 682.207 34.558C686.724 32.671 688.726 30.326 687.158 28.758C685.435 27.035 685.751 26 688 26C689.1 26 690 25.55 690 25C690 24.45 689.311 24 688.469 24C687.626 24 686.678 23.325 686.362 22.5C686.045 21.675 685.384 21 684.893 21C684.402 21 684 21.675 684 22.5C684 23.325 683.55 24 683 24C682.45 24 682 23.41 682 22.688C682 21.102 676.487 16.846 675.593 17.741C674.414 18.92 670.509 18.765 669 17.479C666.676 15.499 658.294 16.229 656.526 18.567C655.153 20.381 655.062 20.388 655.032 18.683C655.009 17.368 654.483 17.029 653.132 17.458C652.105 17.784 649.985 17.565 648.421 16.97C644.587 15.512 641.582 16.427 640.193 19.476C639.081 21.916 636 23.036 636 21C636 20.45 636.45 20 637 20C637.55 20 638 19.325 638 18.5C638 16.559 636.383 16.559 635.638 18.5C634.827 20.614 633.25 20.363 632.5 18.001C631.993 16.402 631.491 16.202 629.994 17.003C628.871 17.604 627.894 17.637 627.553 17.085C626.769 15.817 613.655 16.534 613.21 17.869C612.977 18.568 612.013 18.399 610.474 17.391C608.963 16.401 607.273 16.096 605.832 16.553C604.585 16.949 597.026 17.37 589.033 17.489C575.261 17.695 574.22 17.572 569.157 15.143C564.361 12.841 563.722 12.745 562.906 14.203C562.202 15.461 560.685 15.772 556.177 15.583C552.976 15.449 549.893 15.052 549.326 14.702C548.759 14.351 546.084 14.873 543.382 15.86C540.68 16.848 537.861 17.454 537.119 17.206C536.376 16.959 535.428 17.308 535.012 17.981C534.464 18.867 533.72 18.921 532.324 18.174C531.2 17.572 521.028 17.049 507.947 16.922C486.169 16.709 480.743 16.922 479.634 18.032C479.342 18.325 474.467 18.434 468.801 18.275C450.599 17.764 444.654 17.889 437.127 18.943C433.071 19.511 428.779 19.732 427.588 19.433C426.396 19.134 424.218 19.347 422.746 19.906C420.902 20.608 419.869 20.596 419.42 19.87C418.982 19.162 413.38 19.004 402.384 19.386C390.918 19.786 386 19.631 386 18.871C386 18.231 385.282 18.08 384.25 18.502C383.288 18.896 381.825 19.291 381 19.378C380.175 19.466 378.547 20.076 377.381 20.734C375.008 22.074 373.866 21.512 374.676 19.402C375.011 18.53 374.512 17.949 373.357 17.866C369.557 17.591 362.485 18.245 360.309 19.073C358.631 19.711 357.824 19.508 357.135 18.277C356.42 16.998 354.966 16.683 350.692 16.881C347.657 17.022 342.193 16.39 338.551 15.476C334.178 14.379 331.515 14.145 330.714 14.786C329.506 15.751 315.55 15.586 299 14.41C289.689 13.748 287.568 13.713 275 14.009C270.325 14.119 265.379 13.775 264.009 13.244C262.514 12.664 260.316 12.627 258.509 13.152C256.854 13.633 254.305 13.769 252.845 13.455C251.385 13.14 249.904 13.347 249.553 13.914C249.059 14.713 234.98 14.603 229 13.754C228.725 13.714 227.74 14.017 226.811 14.425C225.882 14.833 224.352 14.737 223.412 14.211C221.485 13.132 209.066 13.815 207.448 15.088C206.869 15.544 205.412 15.659 204.21 15.345C202.743 14.961 201.822 15.301 201.408 16.379C200.961 17.544 200.079 17.807 198.199 17.335C196.773 16.977 192.657 16.643 189.053 16.592C184.212 16.524 182.571 16.157 182.77 15.189C182.98 14.173 181.332 13.962 175.463 14.251C171.296 14.456 167.655 14.251 167.374 13.796C167.092 13.34 166.53 13.173 166.124 13.424C164.254 14.579 155.19 14.946 150.114 14.071C147.027 13.539 138.291 12.869 130.701 12.581C123.112 12.293 116.362 11.718 115.701 11.303C113.706 10.051 100.996 8.731 92.75 8.921C87.894 9.032 85 8.707 85 8.049C85 7.401 81.827 7 76.7 7C71.932 7 67.926 6.526 67.286 5.886C66.19 4.79 58.932 5.916 53.349 8.046C51.663 8.689 51.089 8.449 50.693 6.933C50.415 5.87 49.358 4.997 48.344 4.993C47.33 4.99 45.15 4.093 43.5 3C40.142 0.775998 31.076 0.259998 26.425 2.028C24.322 2.828 23.345 2.717 22.031 1.528C19.844 -0.451002 18.742 -0.401002 17.39 1.743ZM27.5 13C27.84 13.55 27.416 14 26.559 14C25.702 14 25 13.55 25 13C25 12.45 25.423 12 25.941 12C26.459 12 27.16 12.45 27.5 13ZM746.028 14.94C744.758 15.762 744.785 15.98 746.22 16.531C748.341 17.345 751.047 16.796 751.303 15.5C751.569 14.149 747.86 13.756 746.028 14.94ZM690.5 17C690.16 17.55 690.332 18 690.882 18C691.432 18 692.16 17.55 692.5 17C692.84 16.45 692.668 16 692.118 16C691.568 16 690.84 16.45 690.5 17ZM722.508 16.987C722.172 17.53 722.821 18.965 723.949 20.176L726 22.377V19.189C726 16.056 723.901 14.733 722.508 16.987ZM682 18C682 18.55 682.927 19 684.059 19C685.191 19 685.84 18.55 685.5 18C685.16 17.45 684.234 17 683.441 17C682.648 17 682 17.45 682 18ZM759 18C759 18.55 759.45 19 760 19C760.55 19 761 18.55 761 18C761 17.45 760.55 17 760 17C759.45 17 759 17.45 759 18ZM738.485 19.024C738.137 19.588 738.134 21.333 738.479 22.903C739.027 25.398 738.765 25.842 736.398 26.436C734.636 26.878 733.413 26.669 732.899 25.837C732.464 25.133 731.763 24.904 731.34 25.327C730.087 26.579 732.619 29.528 734.638 29.169C735.662 28.986 737.909 28.606 739.631 28.323C742.237 27.895 742.675 27.447 742.237 25.654C741.948 24.469 741.318 22.995 740.838 22.377C740.358 21.759 740.246 20.521 740.59 19.627C741.268 17.858 739.516 17.357 738.485 19.024ZM743 19C743 19.55 743.45 20 744 20C744.55 20 745 19.55 745 19C745 18.45 744.55 18 744 18C743.45 18 743 18.45 743 19ZM692.499 20.002C692.003 20.804 692.558 21.912 694 23C696.687 25.027 695.917 27 692.441 27C689.622 27 689.399 27.841 691.501 30.559C692.914 32.386 693.063 32.398 694.05 30.75C694.627 29.787 695.699 29 696.431 29C697.163 29 698.968 27.42 700.44 25.49L703.118 21.979L700.809 21.089C699.183 20.462 698.067 20.613 697.035 21.6C695.773 22.808 695.413 22.706 694.428 20.865C693.583 19.287 693.08 19.062 692.499 20.002ZM748.5 21C748.16 21.55 748.61 22 749.5 22C750.39 22 750.84 21.55 750.5 21C750.16 20.45 749.71 20 749.5 20C749.29 20 748.84 20.45 748.5 21ZM767.597 20.844C767.251 21.404 767.455 22.163 768.05 22.531C769.588 23.481 770.58 22.18 769.296 20.896C768.578 20.178 768.019 20.161 767.597 20.844ZM786.5 21C786.16 21.55 786.332 22 786.882 22C787.432 22 788.16 21.55 788.5 21C788.84 20.45 788.668 20 788.118 20C787.568 20 786.84 20.45 786.5 21ZM799.543 20.93C799.257 21.393 799.917 22.007 801.011 22.293C802.105 22.579 803 22.453 803 22.013C803 20.838 800.152 19.946 799.543 20.93ZM729.8 22.2C730.733 23.133 731.267 23.133 732.2 22.2C733.133 21.267 732.867 21 731 21C729.133 21 728.867 21.267 729.8 22.2ZM793 22C793 22.55 793.423 23 793.941 23C794.459 23 795.16 22.55 795.5 22C795.84 21.45 795.416 21 794.559 21C793.702 21 793 21.45 793 22ZM716.921 24.5C716.735 26.004 717.148 32.46 717.45 32.774C718.242 33.595 720.997 31.541 720.978 30.143C720.953 28.29 717.113 22.948 716.921 24.5ZM593 26C593 26.55 592.55 27 592 27C591.45 27 591 26.55 591 26C591 25.45 591.45 25 592 25C592.55 25 593 25.45 593 26ZM762 27.059C762 28.191 762.45 28.84 763 28.5C763.55 28.16 764 27.234 764 26.441C764 25.648 763.55 25 763 25C762.45 25 762 25.927 762 27.059ZM650.985 29.25C650.976 29.938 650.627 31.039 650.208 31.697C649.117 33.414 646.57 31.564 647.323 29.601C648.046 27.716 651.007 27.433 650.985 29.25ZM778.321 29.464C778.795 30.885 781.242 30.773 781.731 29.307C781.963 28.611 781.264 28.18 780.052 28.271C778.91 28.357 778.131 28.894 778.321 29.464ZM277.5 31C277.84 31.55 277.641 32 277.059 32C276.477 32 276 31.55 276 31C276 30.45 276.198 30 276.441 30C276.684 30 277.16 30.45 277.5 31ZM391 31C391 31.55 390.55 32 390 32C389.45 32 389 31.55 389 31C389 30.45 389.45 30 390 30C390.55 30 391 30.45 391 31ZM702.557 31.335C700.938 32.518 700.934 32.7 702.486 33.988C703.908 35.168 704.286 35.161 705.061 33.936C706.92 30.998 705.308 29.323 702.557 31.335ZM709 32C709 32.55 709.45 33 710 33C710.55 33 711 32.55 711 32C711 31.45 710.55 31 710 31C709.45 31 709 31.45 709 32ZM690 34C690 34.55 690.477 35 691.059 35C691.641 35 691.84 34.55 691.5 34C691.16 33.45 690.684 33 690.441 33C690.198 33 690 33.45 690 34ZM20.75 39.583C19.797 40.536 17.886 38.993 18.597 37.844C19.019 37.161 19.578 37.178 20.296 37.896C20.885 38.485 21.089 39.244 20.75 39.583ZM12.805 43.528C11.575 44.758 6.69701 44.44 6.22501 43.098C5.86901 42.084 6.32201 41.851 7.86501 42.254C9.03801 42.561 10.274 42.365 10.612 41.819C11.011 41.173 11.6 41.2 12.296 41.896C12.885 42.485 13.114 43.219 12.805 43.528ZM579.5 51C579.84 51.55 579.416 52 578.559 52C577.702 52 577 51.55 577 51C577 50.45 577.423 50 577.941 50C578.459 50 579.16 50.45 579.5 51ZM632.655 52.543C633.465 54.653 632.113 55.793 630.961 53.971C629.737 52.035 629.761 51 631.031 51C631.599 51 632.329 51.694 632.655 52.543ZM662 55C662 55.55 661.55 56 661 56C660.45 56 660 55.55 660 55C660 54.45 660.45 54 661 54C661.55 54 662 54.45 662 55ZM678.5 57C678.84 57.55 678.641 58 678.059 58C677.477 58 677 57.55 677 57C677 56.45 677.198 56 677.441 56C677.684 56 678.16 56.45 678.5 57Z" fill="#3E7F95"/>
</svg>
