<svg width="156" height="78" viewBox="0 0 156 78" fill="none" xmlns="http://www.w3.org/2000/svg">
<path d="M52.1842 23.8029C52.0674 23.6473 51.9776 23.4548 51.9609 23.2515C51.3983 16.5117 50.4995 12.0421 50.4995 12.0421C50.3582 11.2704 49.7343 10.7029 49.0187 10.6118L43.9797 9.96077C43.9361 9.95511 43.8917 9.95196 43.8465 9.95196C43.2588 9.95196 42.7821 10.461 42.7821 11.089V12.9585C42.7816 12.9959 42.7529 13.026 42.7178 13.026C42.7018 13.026 42.6872 13.0198 42.6757 13.0096C39.6577 10.1067 36.2597 7.28898 32.4952 4.80684C31.7787 4.29554 30.9278 4 30.0014 4L29.999 4.00028C29.0725 4.00028 28.2213 4.29554 27.5049 4.80684C10.109 16.2764 0.533751 34.9216 0.164181 35.9456C0.0588823 36.1838 0 36.4498 0 36.7308C0 37.5911 0.552758 38.3136 1.29982 38.5155L6.31107 39.5454C6.98043 39.7413 7.48756 40.3562 7.56345 41.108C7.60434 42.0531 8.55129 63.1562 9.74103 68.6302C9.93581 69.4186 10.6099 70 11.4094 70H11.4471C14.3706 69.9219 17.0486 69.87 19.9401 69.8286H19.9317L19.9585 69.8281C20.0324 69.827 20.1063 69.826 20.1807 69.8249C20.4896 69.8249 20.7401 69.5544 20.7401 69.2241C20.7401 69.2194 20.7401 69.2142 20.7398 69.2089C20.6226 67.3663 20.3698 63.153 20.1651 58.717C20.16 58.6059 20.1518 58.4659 20.1467 58.3532C20.1278 57.9674 19.929 57.6313 19.6376 57.4421C18.1341 56.4812 17.1034 54.763 17.0077 52.7811C16.7448 45.3801 16.6113 36.8274 16.9907 30.1347C17.021 29.5777 17.449 29.1314 17.9799 29.1215C18.5365 29.1113 18.9956 29.5848 19.0055 30.1793C19.006 30.2077 19.0055 30.2358 19.0039 30.2636C18.7566 34.7248 18.7343 39.9991 18.8247 45.203C18.8361 45.9062 19.3795 46.4669 20.0383 46.4547C20.6967 46.4422 21.2215 45.8619 21.2101 45.1584C21.1197 39.9193 21.1439 34.6109 21.3978 30.1347C21.4278 29.5777 21.8558 29.1314 22.3867 29.1215C22.9433 29.1113 23.4027 29.5848 23.4123 30.1793C23.4128 30.2077 23.4123 30.2358 23.4107 30.2636C23.1648 34.7012 23.1416 39.9437 23.2302 45.1209C23.2302 45.1218 23.2302 45.1229 23.2302 45.1241C23.2432 45.8253 23.7855 46.3832 24.4424 46.371C25.0979 46.3588 25.6206 45.7836 25.6134 45.0846C25.5244 39.8694 25.5499 34.59 25.8022 30.1347C25.8325 29.5777 26.2605 29.1314 26.7914 29.1215C27.348 29.1113 27.8071 29.5848 27.817 30.1793C27.8175 30.2077 27.817 30.2358 27.8153 30.2636C27.4549 36.7697 27.5727 45.0051 27.8207 52.2292C27.8207 52.2338 27.8228 52.2922 27.8228 52.2968C27.8239 52.3334 27.8247 52.37 27.8252 52.4067C27.8252 52.4069 27.8252 52.4069 27.8252 52.4073C27.8255 52.4308 27.8255 52.4546 27.8255 52.4785C27.8255 54.4542 26.8972 56.1984 25.481 57.2408C25.2285 57.4279 25.0575 57.7283 25.0352 58.078C25.0352 58.078 24.9108 59.1873 25.3704 64.5632C25.5845 66.9102 25.7479 68.5364 25.8234 69.2718C25.8535 69.5507 26.0749 69.7667 26.3439 69.7667C26.5005 69.7662 26.6574 69.7657 26.8177 69.7651H26.811C27.7763 69.7609 28.7721 69.7589 29.8068 69.7583H30H30.1936C31.5012 69.7589 32.7472 69.762 33.948 69.7683L36.7906 69.795C36.7917 69.795 36.7927 69.795 36.7938 69.795C37.0644 69.795 37.2859 69.5764 37.3249 69.2944C37.9831 62.8521 38.1379 59.2344 38.1379 59.2344C38.1379 58.9089 37.905 58.6646 37.5993 58.6143L34.1463 58.1058C33.6003 58.003 33.276 57.6439 33.1592 57.202C33.0878 56.9341 33.1159 56.6327 33.1159 56.6327C34.5158 35.16 41.145 27.9237 41.145 27.9237C41.3407 27.7108 41.4667 27.627 41.4667 27.627C41.6417 27.4913 41.8573 27.411 42.0901 27.411C42.5396 27.411 42.924 27.7102 43.079 28.1318C43.079 28.1318 43.1335 28.2814 43.1646 28.6479C43.7367 35.3977 43.4576 46.8834 43.1035 55.8438C42.8031 63.4492 42.4397 69.4186 42.4397 69.4186C42.4394 69.4228 42.4394 69.427 42.4394 69.4307C42.4394 69.675 42.625 69.8731 42.8539 69.8731C44.7357 69.9067 46.5889 69.9481 48.5529 70H48.5907C49.3902 70 50.0646 69.4186 50.259 68.6302C51.4489 63.1562 52.3958 42.0531 52.437 41.108C52.5126 40.3562 53.0197 39.7413 53.6893 39.5454L58.7002 38.5155C59.4473 38.3136 60 37.5911 60 36.7308C60 36.4498 59.9411 36.1838 59.836 35.9456C59.6466 35.4204 57.0336 30.2562 52.1842 23.8029Z" fill="#FFB600"/>
<path d="M69.816 18.904H80.984V22.424H69.816V18.904ZM70.168 31H66.008V8.6H82.36V12.088H70.168V31ZM86.383 31V8.6H90.543V31H86.383ZM96.6018 31V8.6H100.026L114.074 25.848H112.378V8.6H116.506V31H113.082L99.0338 13.752H100.73V31H96.6018ZM126.348 17.912H137.484V21.336H126.348V17.912ZM126.668 27.512H139.308V31H122.508V8.6H138.86V12.088H126.668V27.512ZM69.848 56.912H80.984V60.336H69.848V56.912ZM70.168 66.512H82.808V70H66.008V47.6H82.36V51.088H70.168V66.512ZM84.2775 70L94.3575 47.6H98.4535L108.566 70H104.214L95.5415 49.808H97.2055L88.5655 70H84.2775ZM88.9175 64.816L90.0375 61.552H102.134L103.253 64.816H88.9175ZM114.833 70V51.12H107.409V47.6H126.417V51.12H118.993V70H114.833ZM136.265 70.32C134.515 70.32 132.841 70.0747 131.241 69.584C129.641 69.072 128.371 68.4213 127.433 67.632L128.873 64.4C129.769 65.104 130.878 65.6907 132.201 66.16C133.523 66.6293 134.878 66.864 136.265 66.864C137.438 66.864 138.387 66.736 139.113 66.48C139.838 66.224 140.371 65.8827 140.713 65.456C141.054 65.008 141.225 64.5067 141.225 63.952C141.225 63.2693 140.979 62.7253 140.489 62.32C139.998 61.8933 139.358 61.5627 138.569 61.328C137.801 61.072 136.937 60.8373 135.977 60.624C135.038 60.4107 134.089 60.1653 133.129 59.888C132.19 59.5893 131.326 59.216 130.536 58.768C129.769 58.2987 129.139 57.68 128.649 56.912C128.158 56.144 127.913 55.1627 127.913 53.968C127.913 52.752 128.233 51.6427 128.873 50.64C129.534 49.616 130.526 48.8053 131.849 48.208C133.193 47.5893 134.889 47.28 136.937 47.28C138.281 47.28 139.614 47.4507 140.937 47.792C142.259 48.1333 143.411 48.624 144.392 49.264L143.081 52.496C142.078 51.8987 141.043 51.4613 139.977 51.184C138.91 50.8853 137.886 50.736 136.905 50.736C135.753 50.736 134.814 50.8747 134.089 51.152C133.385 51.4293 132.862 51.792 132.521 52.24C132.201 52.688 132.041 53.2 132.041 53.776C132.041 54.4587 132.275 55.0133 132.745 55.44C133.235 55.8453 133.865 56.1653 134.633 56.4C135.422 56.6347 136.297 56.8693 137.257 57.104C138.217 57.3173 139.166 57.5627 140.105 57.84C141.065 58.1173 141.929 58.48 142.697 58.928C143.486 59.376 144.115 59.984 144.585 60.752C145.075 61.52 145.321 62.4907 145.321 63.664C145.321 64.8587 144.99 65.968 144.329 66.992C143.689 67.9947 142.697 68.8053 141.353 69.424C140.009 70.0213 138.313 70.32 136.265 70.32Z" fill="#3E7F95"/>
</svg>
