<svg width="303" height="298" viewBox="0 0 303 298" fill="none" xmlns="http://www.w3.org/2000/svg">
<path d="M151.002 0C67.6907 0 0 66.651 0 148.682C0 230.713 67.6914 297.363 151.002 297.363C234.313 297.363 302.005 230.712 302.005 148.682C301.602 66.6503 234.313 0 151.002 0ZM146.596 252.009C122.965 252.009 122.965 216.12 146.596 216.12C170.227 215.727 170.227 252.009 146.596 252.009ZM183.046 146.71C181.043 148.682 178.64 150.258 176.637 152.231C172.63 155.386 169.026 158.542 165.821 162.09C159.013 169.977 159.013 172.344 159.412 184.175V191.272C159.412 198.766 153.405 205.077 145.392 205.077C137.781 205.077 131.372 199.163 131.372 191.272V184.962C130.972 171.553 130.57 159.721 144.589 143.947C148.996 138.82 153.801 134.877 158.61 131.326C160.613 129.75 162.616 128.17 164.217 126.594C173.429 118.707 181.439 105.299 176.633 91.8879C172.626 80.0558 161.412 72.9584 148.193 73.745C142.586 74.1384 138.18 75.3214 134.576 76.9004C124.962 81.6321 123.361 94.2539 124.163 104.113C124.562 111.607 118.555 118.311 110.945 118.705C102.935 119.098 96.5257 113.184 96.1258 105.69C94.5249 79.6604 103.737 60.3378 122.562 51.6608C128.971 48.5054 136.582 46.929 145.793 46.1396C171.827 43.7737 195.058 58.7612 203.068 82.8156C210.679 104.51 202.669 128.963 183.044 146.71L183.046 146.71Z" fill="black"/>
</svg>
